<svg width="40" height="35" viewBox="0 0 40 35" fill="none" xmlns="http://www.w3.org/2000/svg">
<path d="M2.78963 28.3526C1.41426 28.3526 0 29.4348 0 31.3291C0 33.0609 1.24346 34.2842 2.78963 34.2842C4.06591 34.2842 4.63474 33.4429 4.63474 33.4429V33.8096C4.63474 33.9829 4.8016 34.1763 5.00815 34.1763H5.9307V28.482H4.63474V29.2045C4.63474 29.2045 4.06115 28.3526 2.78963 28.3526ZM3.02049 29.5169C4.15271 29.5169 4.74662 30.4947 4.74662 31.3287C4.74662 32.2577 4.04147 33.1399 3.02289 33.1399C2.17142 33.1399 1.3185 32.4627 1.3185 31.3165C1.3185 30.2818 2.05249 29.5169 3.02049 29.5169Z" fill="white"/>
<path d="M7.73193 34.1768C7.53282 34.1768 7.35852 34.0366 7.35852 33.8101V28.4825H8.65448V29.1871C8.94815 28.7537 9.52188 28.3513 10.4025 28.3513C11.8418 28.3513 12.6083 29.478 12.6083 30.5316V34.1768H11.7077C11.4716 34.1768 11.3123 33.9827 11.3123 33.7886V30.812C11.3123 30.228 10.9479 29.5187 10.1052 29.5187C9.19593 29.5187 8.65449 30.3626 8.65449 31.1571V34.1768L7.73193 34.1768Z" fill="white"/>
<path d="M16.3863 28.3528C15.0109 28.3528 13.5966 29.435 13.5966 31.3294C13.5966 33.0612 14.8401 34.2844 16.3863 34.2844C17.6625 34.2844 18.2314 33.4432 18.2314 33.4432V33.8099C18.2314 33.9832 18.3982 34.1765 18.6048 34.1765H19.5273V25.635H18.2314V29.2048C18.2314 29.2048 17.6578 28.3528 16.3863 28.3528ZM16.6171 29.5172C17.7493 29.5172 18.3433 30.495 18.3433 31.329C18.3433 32.2579 17.6381 33.1401 16.6195 33.1401C15.7681 33.1401 14.9151 32.463 14.9151 31.3167C14.9151 30.282 15.6491 29.5172 16.6171 29.5172Z" fill="white"/>
<path d="M21.3285 34.1763C21.1294 34.1763 20.9551 34.036 20.9551 33.8096V28.4819H22.2511V29.431C22.4741 28.8993 22.9555 28.4172 23.8106 28.4172C24.049 28.4172 24.2719 28.4604 24.2719 28.4604V29.7761C24.2719 29.7761 23.9936 29.6683 23.6569 29.6683C22.7476 29.6683 22.2511 30.5121 22.2511 31.3066V34.1763H21.3285Z" fill="white"/>
<path d="M32.1355 34.1768C31.9364 34.1768 31.7621 34.0365 31.7621 33.8101V28.4824H33.0581V34.1768L32.1355 34.1768Z" fill="white"/>
<path d="M36.8581 28.3528C35.4827 28.3528 34.0684 29.435 34.0684 31.3294C34.0684 33.0612 35.3119 34.2844 36.8581 34.2844C38.1343 34.2844 38.7032 33.4432 38.7032 33.4432V33.8099C38.7032 33.9832 38.87 34.1765 39.0766 34.1765H39.9991V25.635H38.7032V29.2048C38.7032 29.2048 38.1296 28.3528 36.8581 28.3528ZM37.0889 29.5172C38.2211 29.5172 38.8151 30.495 38.8151 31.329C38.8151 32.2579 38.1099 33.1401 37.0913 33.1401C36.2399 33.1401 35.3869 32.463 35.3869 31.3167C35.3869 30.282 36.1209 29.5172 37.0889 29.5172Z" fill="white"/>
<path d="M32.401 27.2542C32.8742 27.2542 33.2579 26.8775 33.2579 26.4127C33.2579 25.948 32.8742 25.5713 32.401 25.5713C31.9277 25.5713 31.5441 25.948 31.5441 26.4127C31.5441 26.8775 31.9277 27.2542 32.401 27.2542Z" fill="white"/>
<path d="M27.6898 28.3508C26.2494 28.3508 24.6669 29.4066 24.6669 31.3192C24.6669 33.0621 26.0148 34.2846 27.6867 34.2846C29.747 34.2846 30.7531 32.6581 30.7531 31.3302C30.7531 29.7008 29.4576 28.3508 27.6898 28.3508ZM27.6945 29.5393C28.6906 29.5393 29.4336 30.3276 29.4336 31.3228C29.4336 32.3352 28.6449 33.1165 27.6975 33.1165C26.818 33.1165 25.9631 32.4137 25.9631 31.3398C25.9631 30.248 26.7762 29.5393 27.6945 29.5393Z" fill="white"/>
<path d="M29.7611 6.63187L33.0769 0.991501C33.264 0.6753 33.1509 0.273633 32.8333 0.0898933C32.5156 -0.0938438 32.1022 0.012978 31.9194 0.329181L28.5601 6.04219C25.9971 4.89275 23.1121 4.25179 20.0095 4.25179C16.9069 4.25179 14.0219 4.89275 11.4588 6.04219L8.09951 0.329181C7.9124 0.012978 7.50336 -0.0938438 7.18135 0.0898933C6.85934 0.273633 6.75055 0.6753 6.93767 0.991501L10.2535 6.63187C4.53566 9.67426 0.662844 15.3574 0.0231934 22.0104H39.9958C39.3561 15.3573 35.4833 9.67421 29.7611 6.63187ZM10.8322 16.4983C9.90537 16.4983 9.15692 15.759 9.15692 14.8531C9.15692 13.943 9.90972 13.208 10.8322 13.208C11.7591 13.208 12.5075 13.9473 12.5075 14.8531C12.5119 15.759 11.7591 16.4983 10.8322 16.4983ZM29.1824 16.4983C28.2556 16.4983 27.5071 15.759 27.5071 14.8531C27.5071 13.943 28.2599 13.208 29.1824 13.208C30.1093 13.208 30.8577 13.9473 30.8577 14.8531C30.8621 15.759 30.1093 16.4983 29.1824 16.4983Z" fill="#32DE84"/>
</svg>
