<svg width="76" height="73" viewBox="0 0 76 73" fill="none" xmlns="http://www.w3.org/2000/svg">
<path d="M2.5 11.3545L26.9836 25.2542C35.9286 30.3324 39.9047 30.3324 48.8497 25.2542L73.3333 11.3545" stroke="white" stroke-width="5" stroke-linejoin="round"/>
<path d="M32.6042 62.7083C30.9527 62.6868 29.2991 62.6551 27.6417 62.6135C16.4908 62.3332 10.9153 62.193 6.90922 58.1694C2.90314 54.1457 2.78737 48.714 2.55584 37.8507C2.48139 34.3577 2.48139 30.8853 2.55583 27.3923C2.78736 16.529 2.90312 11.0973 6.90921 7.07368C10.9153 3.05003 16.4907 2.90988 27.6417 2.62957C34.5142 2.4568 41.3191 2.45681 48.1917 2.62959C59.3426 2.90993 64.9181 3.05009 68.9241 7.07373C72.9302 11.0974 73.046 16.529 73.2775 27.3924C73.3118 29.0006 73.3303 29.7584 73.333 30.8333" stroke="white" stroke-width="5" stroke-linecap="round" stroke-linejoin="round"/>
<path d="M62.7084 53.8545C62.7084 56.7885 60.3299 59.167 57.3959 59.167C54.4619 59.167 52.0834 56.7885 52.0834 53.8545C52.0834 50.9205 54.4619 48.542 57.3959 48.542C60.3299 48.542 62.7084 50.9205 62.7084 53.8545ZM62.7084 53.8545V55.6253C62.7084 58.5593 65.0869 60.9378 68.0209 60.9378C70.9549 60.9378 73.3334 58.5593 73.3334 55.6253V53.8545C73.3334 45.0525 66.1979 37.917 57.3959 37.917C48.5938 37.917 41.4584 45.0525 41.4584 53.8545C41.4584 62.6565 48.5938 69.792 57.3959 69.792" stroke="white" stroke-width="5" stroke-linecap="round" stroke-linejoin="round"/>
</svg>
